<svg xmlns="http://www.w3.org/2000/svg" width="1600" height="1040" viewBox="0 0 1600 1040">
<defs><marker id="arrow" markerWidth="9" markerHeight="9" refX="8" refY="4.5" orient="auto"><path d="M0,0 L9,4.5 L0,9 z" fill="#667085"/></marker><filter id="shadow"><feDropShadow dx="0" dy="2" stdDeviation="3" flood-opacity=".10"/></filter></defs>
<rect width="1600" height="1040" fill="#F5F7FA"/>
<text x="70" y="56" text-anchor="start" font-family="Microsoft YaHei,Arial" font-size="30" font-weight="600" fill="#182230">价策 AI｜XX大商场跨部门定价决策闭环</text>
<text x="70" y="88" text-anchor="start" font-family="Microsoft YaHei,Arial" font-size="15" font-weight="400" fill="#667085">以业务需求为起点，以策略中台为决策责任主体，以数据分析部门为能力底座，以执行效果回流形成闭环</text>
<rect x="70" y="112" width="1460" height="78" rx="12" fill="#FFFFFF" stroke="#D0D5DD" stroke-width="1.2"/>
<rect x="70" y="112" width="12" height="78" rx="6" fill="#E1251B"/>
<text x="105" y="141" text-anchor="start" font-family="Microsoft YaHei,Arial" font-size="15" font-weight="600" fill="#E1251B">共同治理目标</text>
<text x="105" y="168" text-anchor="start" font-family="Microsoft YaHei,Arial" font-size="17" font-weight="600" fill="#182230">经营增长</text>
<text x="268" y="168" text-anchor="start" font-family="Microsoft YaHei,Arial" font-size="17" font-weight="600" fill="#182230">价格竞争力</text>
<text x="458" y="168" text-anchor="start" font-family="Microsoft YaHei,Arial" font-size="17" font-weight="600" fill="#182230">毛利与库存健康</text>
<text x="695" y="168" text-anchor="start" font-family="Microsoft YaHei,Arial" font-size="17" font-weight="600" fill="#182230">商家生态稳定</text>
<text x="908" y="168" text-anchor="start" font-family="Microsoft YaHei,Arial" font-size="17" font-weight="600" fill="#182230">数据合规与安全</text>
<text x="1145" y="168" text-anchor="start" font-family="Microsoft YaHei,Arial" font-size="17" font-weight="600" fill="#182230">策略可解释、可审计、可复盘</text>
<rect x="70" y="224" width="1460" height="244" rx="14" fill="#FFF2F0" stroke="#D8DEE7" stroke-width="1.2"/>
<rect x="70" y="224" width="112" height="244" rx="14" fill="#C4322B"/>
<text x="126" y="336.0" text-anchor="middle" font-family="Microsoft YaHei,Arial" font-size="17" font-weight="600" fill="#FFFFFF">业务部门</text>
<text x="126" y="364.0" text-anchor="middle" font-family="Microsoft YaHei,Arial" font-size="12" font-weight="400" fill="#FFFFFF">需求与执行端</text>
<rect x="70" y="484" width="1460" height="292" rx="14" fill="#EEF4FF" stroke="#D8DEE7" stroke-width="1.2"/>
<rect x="70" y="484" width="112" height="292" rx="14" fill="#2459A9"/>
<text x="126" y="620.0" text-anchor="middle" font-family="Microsoft YaHei,Arial" font-size="17" font-weight="600" fill="#FFFFFF">业务中台部门</text>
<text x="126" y="648.0" text-anchor="middle" font-family="Microsoft YaHei,Arial" font-size="12" font-weight="400" fill="#FFFFFF">策略与产品责任端</text>
<rect x="70" y="796" width="1460" height="220" rx="14" fill="#ECFDF3" stroke="#D8DEE7" stroke-width="1.2"/>
<rect x="70" y="796" width="112" height="220" rx="14" fill="#14804A"/>
<text x="126" y="896.0" text-anchor="middle" font-family="Microsoft YaHei,Arial" font-size="17" font-weight="600" fill="#FFFFFF">数据分析部门</text>
<text x="126" y="924.0" text-anchor="middle" font-family="Microsoft YaHei,Arial" font-size="12" font-weight="400" fill="#FFFFFF">数据与技术支持端</text>
<g filter="url(#shadow)"><rect x="210" y="294" width="220" height="118" rx="12" fill="#FFFFFF" stroke="#C4322B" stroke-width="1.6"/></g>
<rect x="210" y="294" width="6" height="118" rx="3" fill="#C4322B"/>
<text x="226" y="321" text-anchor="start" font-family="Microsoft YaHei,Arial" font-size="16" font-weight="600" fill="#182230">业务需求输入</text>
<text x="228" y="349" text-anchor="start" font-family="Microsoft YaHei,Arial" font-size="11.5" font-weight="400" fill="#667085">• 业务目标 / 活动节奏</text>
<text x="228" y="368" text-anchor="start" font-family="Microsoft YaHei,Arial" font-size="11.5" font-weight="400" fill="#667085">• 商家结构 / 货盘结构</text>
<text x="228" y="387" text-anchor="start" font-family="Microsoft YaHei,Arial" font-size="11.5" font-weight="400" fill="#667085">• 价格痛点与支持诉求</text>
<g filter="url(#shadow)"><rect x="1110" y="294" width="220" height="118" rx="12" fill="#FFFFFF" stroke="#C4322B" stroke-width="1.6"/></g>
<rect x="1110" y="294" width="6" height="118" rx="3" fill="#C4322B"/>
<text x="1126" y="321" text-anchor="start" font-family="Microsoft YaHei,Arial" font-size="16" font-weight="600" fill="#182230">业务审批与执行</text>
<text x="1128" y="349" text-anchor="start" font-family="Microsoft YaHei,Arial" font-size="11.5" font-weight="400" fill="#667085">• 确认目标商品与价格</text>
<text x="1128" y="368" text-anchor="start" font-family="Microsoft YaHei,Arial" font-size="11.5" font-weight="400" fill="#667085">• 人工审核策略建议</text>
<text x="1128" y="387" text-anchor="start" font-family="Microsoft YaHei,Arial" font-size="11.5" font-weight="400" fill="#667085">• 在业务系统执行调价</text>
<g filter="url(#shadow)"><rect x="1360" y="294" width="190" height="118" rx="12" fill="#FFFFFF" stroke="#C4322B" stroke-width="1.6"/></g>
<rect x="1360" y="294" width="6" height="118" rx="3" fill="#C4322B"/>
<text x="1376" y="321" text-anchor="start" font-family="Microsoft YaHei,Arial" font-size="16" font-weight="600" fill="#182230">效果反馈</text>
<text x="1378" y="349" text-anchor="start" font-family="Microsoft YaHei,Arial" font-size="11.5" font-weight="400" fill="#667085">• 销量 / 转化 / 毛利</text>
<text x="1378" y="368" text-anchor="start" font-family="Microsoft YaHei,Arial" font-size="11.5" font-weight="400" fill="#667085">• 库存周转 / 商家反馈</text>
<text x="1378" y="387" text-anchor="start" font-family="Microsoft YaHei,Arial" font-size="11.5" font-weight="400" fill="#667085">• 异常与新增需求</text>
<g filter="url(#shadow)"><rect x="210" y="558" width="220" height="126" rx="12" fill="#FFFFFF" stroke="#2459A9" stroke-width="1.6"/></g>
<rect x="210" y="558" width="6" height="126" rx="3" fill="#2459A9"/>
<text x="226" y="585" text-anchor="start" font-family="Microsoft YaHei,Arial" font-size="16" font-weight="600" fill="#182230">需求受理与分级</text>
<text x="228" y="613" text-anchor="start" font-family="Microsoft YaHei,Arial" font-size="11.5" font-weight="400" fill="#667085">• 明确业务组与场景</text>
<text x="228" y="632" text-anchor="start" font-family="Microsoft YaHei,Arial" font-size="11.5" font-weight="400" fill="#667085">• 评估价值、时效和风险</text>
<text x="228" y="651" text-anchor="start" font-family="Microsoft YaHei,Arial" font-size="11.5" font-weight="400" fill="#667085">• 形成需求说明与优先级</text>
<g filter="url(#shadow)"><rect x="476" y="558" width="225" height="126" rx="12" fill="#FFFFFF" stroke="#2459A9" stroke-width="1.6"/></g>
<rect x="476" y="558" width="6" height="126" rx="3" fill="#2459A9"/>
<text x="492" y="585" text-anchor="start" font-family="Microsoft YaHei,Arial" font-size="16" font-weight="600" fill="#182230">策略与比价逻辑设计</text>
<text x="494" y="613" text-anchor="start" font-family="Microsoft YaHei,Arial" font-size="11.5" font-weight="400" fill="#667085">• 定义同款及到手价口径</text>
<text x="494" y="632" text-anchor="start" font-family="Microsoft YaHei,Arial" font-size="11.5" font-weight="400" fill="#667085">• 设计商品角色与价格带</text>
<text x="494" y="651" text-anchor="start" font-family="Microsoft YaHei,Arial" font-size="11.5" font-weight="400" fill="#667085">• 设置毛利线和风险护栏</text>
<g filter="url(#shadow)"><rect x="744" y="558" width="225" height="126" rx="12" fill="#FFFFFF" stroke="#2459A9" stroke-width="1.6"/></g>
<rect x="744" y="558" width="6" height="126" rx="3" fill="#2459A9"/>
<text x="760" y="585" text-anchor="start" font-family="Microsoft YaHei,Arial" font-size="16" font-weight="600" fill="#182230">产品配置与决策计算</text>
<text x="762" y="613" text-anchor="start" font-family="Microsoft YaHei,Arial" font-size="11.5" font-weight="400" fill="#667085">• 配置策略参数和适用范围</text>
<text x="762" y="632" text-anchor="start" font-family="Microsoft YaHei,Arial" font-size="11.5" font-weight="400" fill="#667085">• 运行诊断 / 拐点 / 模拟</text>
<text x="762" y="651" text-anchor="start" font-family="Microsoft YaHei,Arial" font-size="11.5" font-weight="400" fill="#667085">• 保留规则版本和证据链</text>
<g filter="url(#shadow)"><rect x="1012" y="558" width="225" height="126" rx="12" fill="#FFFFFF" stroke="#2459A9" stroke-width="1.6"/></g>
<rect x="1012" y="558" width="6" height="126" rx="3" fill="#2459A9"/>
<text x="1028" y="585" text-anchor="start" font-family="Microsoft YaHei,Arial" font-size="16" font-weight="600" fill="#182230">报告分析与策略传递</text>
<text x="1030" y="613" text-anchor="start" font-family="Microsoft YaHei,Arial" font-size="11.5" font-weight="400" fill="#667085">• 输出商品级调价清单</text>
<text x="1030" y="632" text-anchor="start" font-family="Microsoft YaHei,Arial" font-size="11.5" font-weight="400" fill="#667085">• 生成经营驾驶舱与报告</text>
<text x="1030" y="651" text-anchor="start" font-family="Microsoft YaHei,Arial" font-size="11.5" font-weight="400" fill="#667085">• 向业务解释建议和边界</text>
<g filter="url(#shadow)"><rect x="1280" y="558" width="225" height="126" rx="12" fill="#FFFFFF" stroke="#2459A9" stroke-width="1.6"/></g>
<rect x="1280" y="558" width="6" height="126" rx="3" fill="#2459A9"/>
<text x="1296" y="585" text-anchor="start" font-family="Microsoft YaHei,Arial" font-size="16" font-weight="600" fill="#182230">复盘与策略迭代</text>
<text x="1298" y="613" text-anchor="start" font-family="Microsoft YaHei,Arial" font-size="11.5" font-weight="400" fill="#667085">• 归因价格与非价格因素</text>
<text x="1298" y="632" text-anchor="start" font-family="Microsoft YaHei,Arial" font-size="11.5" font-weight="400" fill="#667085">• 评估策略命中与收益</text>
<text x="1298" y="651" text-anchor="start" font-family="Microsoft YaHei,Arial" font-size="11.5" font-weight="400" fill="#667085">• 更新规则、阈值和优先级</text>
<g filter="url(#shadow)"><rect x="210" y="842" width="220" height="116" rx="12" fill="#FFFFFF" stroke="#14804A" stroke-width="1.6"/></g>
<rect x="210" y="842" width="6" height="116" rx="3" fill="#14804A"/>
<text x="226" y="869" text-anchor="start" font-family="Microsoft YaHei,Arial" font-size="16" font-weight="600" fill="#182230">数据源与采集支持</text>
<text x="228" y="897" text-anchor="start" font-family="Microsoft YaHei,Arial" font-size="11.5" font-weight="400" fill="#667085">• 平台授权 API / 合规采集</text>
<text x="228" y="916" text-anchor="start" font-family="Microsoft YaHei,Arial" font-size="11.5" font-weight="400" fill="#667085">• 竞品、活动与价格快照</text>
<text x="228" y="935" text-anchor="start" font-family="Microsoft YaHei,Arial" font-size="11.5" font-weight="400" fill="#667085">• 采集频率与失败重试</text>
<g filter="url(#shadow)"><rect x="514" y="842" width="240" height="116" rx="12" fill="#FFFFFF" stroke="#14804A" stroke-width="1.6"/></g>
<rect x="514" y="842" width="6" height="116" rx="3" fill="#14804A"/>
<text x="530" y="869" text-anchor="start" font-family="Microsoft YaHei,Arial" font-size="16" font-weight="600" fill="#182230">数据治理与质量保障</text>
<text x="532" y="897" text-anchor="start" font-family="Microsoft YaHei,Arial" font-size="11.5" font-weight="400" fill="#667085">• SKU 标准化与同款匹配</text>
<text x="532" y="916" text-anchor="start" font-family="Microsoft YaHei,Arial" font-size="11.5" font-weight="400" fill="#667085">• 到手价归一 / 异常识别</text>
<text x="532" y="935" text-anchor="start" font-family="Microsoft YaHei,Arial" font-size="11.5" font-weight="400" fill="#667085">• 完整性、时效性和可信度</text>
<g filter="url(#shadow)"><rect x="838" y="842" width="240" height="116" rx="12" fill="#FFFFFF" stroke="#14804A" stroke-width="1.6"/></g>
<rect x="838" y="842" width="6" height="116" rx="3" fill="#14804A"/>
<text x="854" y="869" text-anchor="start" font-family="Microsoft YaHei,Arial" font-size="16" font-weight="600" fill="#182230">数据服务与产品运维</text>
<text x="856" y="897" text-anchor="start" font-family="Microsoft YaHei,Arial" font-size="11.5" font-weight="400" fill="#667085">• 数据接口与任务调度</text>
<text x="856" y="916" text-anchor="start" font-family="Microsoft YaHei,Arial" font-size="11.5" font-weight="400" fill="#667085">• 监控告警 / 权限 / 日志</text>
<text x="856" y="935" text-anchor="start" font-family="Microsoft YaHei,Arial" font-size="11.5" font-weight="400" fill="#667085">• 版本发布与故障响应</text>
<g filter="url(#shadow)"><rect x="1162" y="842" width="240" height="116" rx="12" fill="#FFFFFF" stroke="#14804A" stroke-width="1.6"/></g>
<rect x="1162" y="842" width="6" height="116" rx="3" fill="#14804A"/>
<text x="1178" y="869" text-anchor="start" font-family="Microsoft YaHei,Arial" font-size="16" font-weight="600" fill="#182230">效果数据沉淀</text>
<text x="1180" y="897" text-anchor="start" font-family="Microsoft YaHei,Arial" font-size="11.5" font-weight="400" fill="#667085">• 销量、转化、毛利和库存</text>
<text x="1180" y="916" text-anchor="start" font-family="Microsoft YaHei,Arial" font-size="11.5" font-weight="400" fill="#667085">• 实验组 / 对照组结果</text>
<text x="1180" y="935" text-anchor="start" font-family="Microsoft YaHei,Arial" font-size="11.5" font-weight="400" fill="#667085">• 回流策略中台用于复盘</text>
<path d="M 320 436 L 412 474 L 320 512 L 228 474 Z" fill="#FFF8E7" stroke="#C58A16" stroke-width="1.5"/>
<text x="320" y="470" text-anchor="middle" font-family="Microsoft YaHei,Arial" font-size="12" font-weight="600" fill="#182230">需求评审</text>
<text x="320" y="488" text-anchor="middle" font-family="Microsoft YaHei,Arial" font-size="10.5" font-weight="400" fill="#182230">价值 · 合规 · SLA</text>
<path d="M 796 746 L 888 784 L 796 822 L 704 784 Z" fill="#FFF8E7" stroke="#C58A16" stroke-width="1.5"/>
<text x="796" y="780" text-anchor="middle" font-family="Microsoft YaHei,Arial" font-size="12" font-weight="600" fill="#182230">数据准入</text>
<text x="796" y="798" text-anchor="middle" font-family="Microsoft YaHei,Arial" font-size="10.5" font-weight="400" fill="#182230">质量达标 · 口径统一</text>
<path d="M 1124 436 L 1216 474 L 1124 512 L 1032 474 Z" fill="#FFF8E7" stroke="#C58A16" stroke-width="1.5"/>
<text x="1124" y="470" text-anchor="middle" font-family="Microsoft YaHei,Arial" font-size="12" font-weight="600" fill="#182230">策略评审</text>
<text x="1124" y="488" text-anchor="middle" font-family="Microsoft YaHei,Arial" font-size="10.5" font-weight="400" fill="#182230">利润护栏 · 风险审批</text>
<path d="M 1410 746 L 1502 784 L 1410 822 L 1318 784 Z" fill="#FFF8E7" stroke="#C58A16" stroke-width="1.5"/>
<text x="1410" y="780" text-anchor="middle" font-family="Microsoft YaHei,Arial" font-size="12" font-weight="600" fill="#182230">效果归因</text>
<text x="1410" y="798" text-anchor="middle" font-family="Microsoft YaHei,Arial" font-size="10.5" font-weight="400" fill="#182230">实验口径 · 复盘确认</text>
<path d="M320.0,412 L320.0,485.0 L320.0,485.0 L320.0,558" fill="none" stroke="#667085" stroke-width="1.7" marker-end="url(#arrow)"/>
<rect x="265.0" y="465.0" width="110" height="18" rx="3" fill="#F5F7FA" opacity=".95"/>
<text x="320.0" y="478.0" text-anchor="middle" font-family="Microsoft YaHei,Arial" font-size="10.5" font-weight="400" fill="#667085">业务场景与需求</text>
<path d="M430,621.0 L453.0,621.0 L453.0,621.0 L476,621.0" fill="none" stroke="#667085" stroke-width="1.7" marker-end="url(#arrow)"/>
<rect x="398.0" y="601.0" width="110" height="18" rx="3" fill="#F5F7FA" opacity=".95"/>
<text x="453.0" y="614.0" text-anchor="middle" font-family="Microsoft YaHei,Arial" font-size="10.5" font-weight="400" fill="#667085">需求说明 / 优先级</text>
<path d="M701,621.0 L722.5,621.0 L722.5,621.0 L744,621.0" fill="none" stroke="#667085" stroke-width="1.7" marker-end="url(#arrow)"/>
<rect x="667.5" y="601.0" width="110" height="18" rx="3" fill="#F5F7FA" opacity=".95"/>
<text x="722.5" y="614.0" text-anchor="middle" font-family="Microsoft YaHei,Arial" font-size="10.5" font-weight="400" fill="#667085">策略规则 / 参数</text>
<path d="M969,621.0 L990.5,621.0 L990.5,621.0 L1012,621.0" fill="none" stroke="#667085" stroke-width="1.7" marker-end="url(#arrow)"/>
<rect x="935.5" y="601.0" width="110" height="18" rx="3" fill="#F5F7FA" opacity=".95"/>
<text x="990.5" y="614.0" text-anchor="middle" font-family="Microsoft YaHei,Arial" font-size="10.5" font-weight="400" fill="#667085">诊断结果 / 证据</text>
<path d="M1124.5,558 L1124.5,485.0 L1220.0,485.0 L1220.0,412" fill="none" stroke="#667085" stroke-width="1.7" marker-end="url(#arrow)"/>
<rect x="1117.25" y="465.0" width="110" height="18" rx="3" fill="#F5F7FA" opacity=".95"/>
<text x="1172.25" y="478.0" text-anchor="middle" font-family="Microsoft YaHei,Arial" font-size="10.5" font-weight="400" fill="#667085">报告与执行建议</text>
<path d="M1330,353.0 L1345.0,353.0 L1345.0,353.0 L1360,353.0" fill="none" stroke="#667085" stroke-width="1.7" marker-end="url(#arrow)"/>
<rect x="1290.0" y="333.0" width="110" height="18" rx="3" fill="#F5F7FA" opacity=".95"/>
<text x="1345.0" y="346.0" text-anchor="middle" font-family="Microsoft YaHei,Arial" font-size="10.5" font-weight="400" fill="#667085">执行记录</text>
<path d="M1455.0,412 L1455.0,485.0 L1392.5,485.0 L1392.5,558" fill="none" stroke="#667085" stroke-width="1.7" marker-end="url(#arrow)"/>
<rect x="1368.75" y="465.0" width="110" height="18" rx="3" fill="#F5F7FA" opacity=".95"/>
<text x="1423.75" y="478.0" text-anchor="middle" font-family="Microsoft YaHei,Arial" font-size="10.5" font-weight="400" fill="#667085">业务结果与反馈</text>
<path d="M1280,621.0 L990.5,621.0 L990.5,621.0 L701,621.0" fill="none" stroke="#667085" stroke-width="1.7" marker-end="url(#arrow)" stroke-dasharray="6 4"/>
<rect x="935.5" y="601.0" width="110" height="18" rx="3" fill="#F5F7FA" opacity=".95"/>
<text x="990.5" y="614.0" text-anchor="middle" font-family="Microsoft YaHei,Arial" font-size="10.5" font-weight="400" fill="#667085">规则迭代</text>
<path d="M430,900.0 L472.0,900.0 L472.0,900.0 L514,900.0" fill="none" stroke="#667085" stroke-width="1.7" marker-end="url(#arrow)"/>
<rect x="417.0" y="880.0" width="110" height="18" rx="3" fill="#F5F7FA" opacity=".95"/>
<text x="472.0" y="893.0" text-anchor="middle" font-family="Microsoft YaHei,Arial" font-size="10.5" font-weight="400" fill="#667085">原始数据</text>
<path d="M754,900.0 L796.0,900.0 L796.0,900.0 L838,900.0" fill="none" stroke="#667085" stroke-width="1.7" marker-end="url(#arrow)"/>
<rect x="741.0" y="880.0" width="110" height="18" rx="3" fill="#F5F7FA" opacity=".95"/>
<text x="796.0" y="893.0" text-anchor="middle" font-family="Microsoft YaHei,Arial" font-size="10.5" font-weight="400" fill="#667085">标准化数据</text>
<path d="M958.0,842 L958.0,763.0 L856.5,763.0 L856.5,684" fill="none" stroke="#667085" stroke-width="1.7" marker-end="url(#arrow)"/>
<rect x="852.25" y="743.0" width="110" height="18" rx="3" fill="#F5F7FA" opacity=".95"/>
<text x="907.25" y="756.0" text-anchor="middle" font-family="Microsoft YaHei,Arial" font-size="10.5" font-weight="400" fill="#667085">数据服务 / 运行保障</text>
<path d="M1455.0,412 L1455.0,627.0 L1282.0,627.0 L1282.0,842" fill="none" stroke="#667085" stroke-width="1.7" marker-end="url(#arrow)"/>
<rect x="1313.5" y="607.0" width="110" height="18" rx="3" fill="#F5F7FA" opacity=".95"/>
<text x="1368.5" y="620.0" text-anchor="middle" font-family="Microsoft YaHei,Arial" font-size="10.5" font-weight="400" fill="#667085">经营结果</text>
<path d="M1282.0,842 L1282.0,763.0 L1392.5,763.0 L1392.5,684" fill="none" stroke="#667085" stroke-width="1.7" marker-end="url(#arrow)"/>
<rect x="1282.25" y="743.0" width="110" height="18" rx="3" fill="#F5F7FA" opacity=".95"/>
<text x="1337.25" y="756.0" text-anchor="middle" font-family="Microsoft YaHei,Arial" font-size="10.5" font-weight="400" fill="#667085">效果数据集</text>
<path d="M588.5,684 L588.5,763.0 L320.0,763.0 L320.0,842" fill="none" stroke="#667085" stroke-width="1.7" marker-end="url(#arrow)" stroke-dasharray="6 4"/>
<rect x="399.25" y="743.0" width="110" height="18" rx="3" fill="#F5F7FA" opacity=".95"/>
<text x="454.25" y="756.0" text-anchor="middle" font-family="Microsoft YaHei,Arial" font-size="10.5" font-weight="400" fill="#667085">数据需求 / 采集口径</text>
<text x="70" y="1020" text-anchor="start" font-family="Microsoft YaHei,Arial" font-size="13" font-weight="500" fill="#667085">职责边界：业务部门对场景真实性和执行结果负责；业务中台对策略规则、决策输出和复盘负责；数据分析部门对数据能力、质量和产品稳定性负责。</text>
</svg>